{"title":"Smashed 2012 BRRip 720p x264 AAC - PRiSTiNE [P2PDL]","uid":8214013,"size":481674227,"categoryP":"video","categoryS":"hd___movies","magnet":"?xt=urn:btih:30e01c5e9e14c7c276f9aa4f14cc46a4b0e8e319&amp;dn=Smashed+2012+BRRip+720p+x264+AAC+-+PRiSTiNE+%5BP2PDL%5D&amp;tr=udp%3A%2F%2Ftracker.openbittorrent.com%3A80&amp;tr=udp%3A%2F%2Fopen.demonii.com%3A1337&amp;tr=udp%3A%2F%2Ftracker.coppersurfer.tk%3A6969&amp;tr=udp%3A%2F%2Fexodus.desync.com%3A6969","seeders":1,"leechers":0,"uploader":"Vitamin_X","files":-1,"time":1362302696,"description":"_________________________  Visit us at _________________________\n  &lt;a href=&quot;\nhttp://p2pdl.com&quot; rel=&quot;nofollow&quot; target=&quot;_NEW&quot;&gt;\nhttp://p2pdl.com&lt;/a&gt;  ____________________________ &lt;a href=&quot; http://p2pdl.com&quot; rel=&quot;nofollow&quot; target=&quot;_NEW&quot;&gt; http://p2pdl.com&lt;/a&gt;\n\nSmashed 2012 BRRip 720p x264 AAC - PRiSTiNE\n\nGenre: Comedy | Drama\nPlot: A married couple whose bond is built on a mutual love of alcohol gets their \nrelationship put to the test when the wife decides to get sober.\nDirector: James Ponsoldt\nStars: Mary Elizabeth Winstead, Aaron Paul, Octavia Spencer\nRated: Rated R for alcohol abuse, language, some sexual content and brief drug use\n\nInfo: &lt;a href=&quot;\nhttp://www.imdb.com/title/tt2063781/&quot; rel=&quot;nofollow&quot; target=&quot;_NEW&quot;&gt;\nhttp://www.imdb.com/title/tt2063781/&lt;/a&gt;\n\nGeneral\nComplete name                  : Smashed 2012 BRRip 720p x264 AAC - PRiSTiNE.mp4\nFormat                         : MPEG-4\nFormat profile                 : Base Media\nFile size                      : 453 MiB\nDuration                       : 1h 21mn\nOverall bit rate mode          : Variable\nOverall bit rate               : 781 Kbps\n\nSource                         : 720p BluRay Geckos (Thanks)\n\nVideo\nFormat                         : AVC\nFormat/Info                    : Advanced Video Codec\nFormat profile                 : High &lt;a class=&quot;__cf_email__&quot; href=&quot;/cdn-cgi/l/email-protection&quot; data-cfemail=&quot;bb8a8bfbf78f958a&quot;&gt;[email&amp;#160;protected]&lt;/a&gt;&lt;script cf-hash='f9e31' type=&quot;text/javascript&quot;&gt;\n/* &lt;![CDATA[ */!function(){try{var t=&quot;currentScript&quot;in document?document.currentScript:function(){for(var t=document.getElementsByTagName(&quot;script&quot;),e=t.length;e--;)if(t[e].getAttribute(&quot;cf-hash&quot;))return t[e]}();if(t&amp;&amp;t.previousSibling){var e,r,n,i,c=t.previousSibling,a=c.getAttribute(&quot;data-cfemail&quot;);if(a){for(e=&quot;&quot;,r=parseInt(a.substr(0,2),16),n=2;a.length-n;n+=2)i=parseInt(a.substr(n,2),16)^r,e+=String.fromCharCode(i);e=document.createTextNode(e),c.parentNode.replaceChild(e,c)}}}catch(u){}}();/* ]]&gt; */&lt;/script&gt;\nCodec ID/Info                  : Advanced Video Coding\nBit rate                       : 709 Kbps\nWidth                          : 1 280 pixels\nHeight                         : 696 pixels\nDisplay aspect ratio           : 1.85:1\nFrame rate mode                : Constant\nFrame rate                     : 23.976 fps\nColor space                    : YUV\nChroma subsampling             : 4:2:0\nBit depth                      : 10 bits\nScan type                      : Progressive\nBits/(Pixel*Frame)             : 0.033\nStream size                    : 411 MiB (91%)\n\nAudio\nFormat                         : AAC\nBit rate                       : 70.0 Kbps\nChannel(s)                     : 2 channels\nChannel positions              : Front: L R\nSampling rate                  : 48.0 KHz / 24.0 KHz\nStream size                    : 40.6 MiB (9%)\nLanguage                       : English\n\nSubtitle                       : Yes ( English)\n\n\nScreens: &lt;a href=&quot;\nhttp://www.ultraimg.com/images/vkCxd.jpg&quot; rel=&quot;nofollow&quot; target=&quot;_NEW&quot;&gt;\nhttp://www.ultraimg.com/images/vkCxd.jpg&lt;/a&gt; &lt;a href=&quot;\nhttp://www.ultraimg.com/images/Av5BD.jpg&quot; rel=&quot;nofollow&quot; target=&quot;_NEW&quot;&gt;\nhttp://www.ultraimg.com/images/Av5BD.jpg&lt;/a&gt; &lt;a href=&quot;\nhttp://www.ultraimg.com/images/TBhcL.jpg&quot; rel=&quot;nofollow&quot; target=&quot;_NEW&quot;&gt;\nhttp://www.ultraimg.com/images/TBhcL.jpg&lt;/a&gt; &lt;a href=&quot;\nhttp://www.ultraimg.com/images/sNQir.jpg&quot; rel=&quot;nofollow&quot; target=&quot;_NEW&quot;&gt;\nhttp://www.ultraimg.com/images/sNQir.jpg&lt;/a&gt;\n\nThumbs: &lt;a href=&quot;\nhttp://www.ultraimg.com/images/NPy7e.jpg&quot; rel=&quot;nofollow&quot; target=&quot;_NEW&quot;&gt;\nhttp://www.ultraimg.com/images/NPy7e.jpg&lt;/a&gt;\n----------------------------------------------------------------------------------------------------\nEncoded using revolutionary 10bit encoding, which enables us to provide you more crispier \nand sharper images at small sizes, just make sure you follow our instructions without a fault.\nRecommend to you to use latest version of VLC player. Install K-Lite Codec Pack or shark007 codecs\nin case of any kind of problem in playback (For non-VLC Media Player users). Alternatively, install\nCore AVC codecs, the fastest decoder that there is coupled with Community Center Codec Pack and play\non Windows Media Player Classic. Check sample to be sure.\nEnjoy!","torrent":{"xt":"urn:btih:30e01c5e9e14c7c276f9aa4f14cc46a4b0e8e319","amp;dn":"Smashed+2012+BRRip+720p+x264+AAC+-+PRiSTiNE+%5BP2PDL%5D","amp;tr":["udp%3A%2F%2Ftracker.openbittorrent.com%3A80","udp%3A%2F%2Fopen.demonii.com%3A1337","udp%3A%2F%2Ftracker.coppersurfer.tk%3A6969","udp%3A%2F%2Fexodus.desync.com%3A6969"],"infoHash":"30e01c5e9e14c7c276f9aa4f14cc46a4b0e8e319","infoHashBuffer":{"type":"Buffer","data":[48,224,28,94,158,20,199,194,118,249,170,79,20,204,70,164,176,232,227,25]},"announce":[],"urlList":[]}}